%TF.GenerationSoftware,KiCad,Pcbnew,8.0.7*%
%TF.CreationDate,2025-05-01T23:39:49-04:00*%
%TF.ProjectId,Celeste Keychain,43656c65-7374-4652-904b-657963686169,rev?*%
%TF.SameCoordinates,Original*%
%TF.FileFunction,Legend,Bot*%
%TF.FilePolarity,Positive*%
%FSLAX46Y46*%
G04 Gerber Fmt 4.6, Leading zero omitted, Abs format (unit mm)*
G04 Created by KiCad (PCBNEW 8.0.7) date 2025-05-01 23:39:49*
%MOMM*%
%LPD*%
G01*
G04 APERTURE LIST*
%ADD10C,0.100000*%
%ADD11C,0.150000*%
%ADD12C,0.120000*%
G04 APERTURE END LIST*
D10*
X137808615Y-83216169D02*
X137808615Y-82549502D01*
X137808615Y-82644740D02*
X137760996Y-82597121D01*
X137760996Y-82597121D02*
X137665758Y-82549502D01*
X137665758Y-82549502D02*
X137522901Y-82549502D01*
X137522901Y-82549502D02*
X137427663Y-82597121D01*
X137427663Y-82597121D02*
X137380044Y-82692359D01*
X137380044Y-82692359D02*
X137380044Y-83216169D01*
X137380044Y-82692359D02*
X137332425Y-82597121D01*
X137332425Y-82597121D02*
X137237187Y-82549502D01*
X137237187Y-82549502D02*
X137094330Y-82549502D01*
X137094330Y-82549502D02*
X136999091Y-82597121D01*
X136999091Y-82597121D02*
X136951472Y-82692359D01*
X136951472Y-82692359D02*
X136951472Y-83216169D01*
X136046711Y-83216169D02*
X136046711Y-82692359D01*
X136046711Y-82692359D02*
X136094330Y-82597121D01*
X136094330Y-82597121D02*
X136189568Y-82549502D01*
X136189568Y-82549502D02*
X136380044Y-82549502D01*
X136380044Y-82549502D02*
X136475282Y-82597121D01*
X136046711Y-83168550D02*
X136141949Y-83216169D01*
X136141949Y-83216169D02*
X136380044Y-83216169D01*
X136380044Y-83216169D02*
X136475282Y-83168550D01*
X136475282Y-83168550D02*
X136522901Y-83073311D01*
X136522901Y-83073311D02*
X136522901Y-82978073D01*
X136522901Y-82978073D02*
X136475282Y-82882835D01*
X136475282Y-82882835D02*
X136380044Y-82835216D01*
X136380044Y-82835216D02*
X136141949Y-82835216D01*
X136141949Y-82835216D02*
X136046711Y-82787597D01*
X135141949Y-83216169D02*
X135141949Y-82216169D01*
X135141949Y-83168550D02*
X135237187Y-83216169D01*
X135237187Y-83216169D02*
X135427663Y-83216169D01*
X135427663Y-83216169D02*
X135522901Y-83168550D01*
X135522901Y-83168550D02*
X135570520Y-83120930D01*
X135570520Y-83120930D02*
X135618139Y-83025692D01*
X135618139Y-83025692D02*
X135618139Y-82739978D01*
X135618139Y-82739978D02*
X135570520Y-82644740D01*
X135570520Y-82644740D02*
X135522901Y-82597121D01*
X135522901Y-82597121D02*
X135427663Y-82549502D01*
X135427663Y-82549502D02*
X135237187Y-82549502D01*
X135237187Y-82549502D02*
X135141949Y-82597121D01*
X134284806Y-83168550D02*
X134380044Y-83216169D01*
X134380044Y-83216169D02*
X134570520Y-83216169D01*
X134570520Y-83216169D02*
X134665758Y-83168550D01*
X134665758Y-83168550D02*
X134713377Y-83073311D01*
X134713377Y-83073311D02*
X134713377Y-82692359D01*
X134713377Y-82692359D02*
X134665758Y-82597121D01*
X134665758Y-82597121D02*
X134570520Y-82549502D01*
X134570520Y-82549502D02*
X134380044Y-82549502D01*
X134380044Y-82549502D02*
X134284806Y-82597121D01*
X134284806Y-82597121D02*
X134237187Y-82692359D01*
X134237187Y-82692359D02*
X134237187Y-82787597D01*
X134237187Y-82787597D02*
X134713377Y-82882835D01*
X133046710Y-83216169D02*
X133046710Y-82216169D01*
X133046710Y-82597121D02*
X132951472Y-82549502D01*
X132951472Y-82549502D02*
X132760996Y-82549502D01*
X132760996Y-82549502D02*
X132665758Y-82597121D01*
X132665758Y-82597121D02*
X132618139Y-82644740D01*
X132618139Y-82644740D02*
X132570520Y-82739978D01*
X132570520Y-82739978D02*
X132570520Y-83025692D01*
X132570520Y-83025692D02*
X132618139Y-83120930D01*
X132618139Y-83120930D02*
X132665758Y-83168550D01*
X132665758Y-83168550D02*
X132760996Y-83216169D01*
X132760996Y-83216169D02*
X132951472Y-83216169D01*
X132951472Y-83216169D02*
X133046710Y-83168550D01*
X132237186Y-82549502D02*
X131999091Y-83216169D01*
X131760996Y-82549502D02*
X131999091Y-83216169D01*
X131999091Y-83216169D02*
X132094329Y-83454264D01*
X132094329Y-83454264D02*
X132141948Y-83501883D01*
X132141948Y-83501883D02*
X132237186Y-83549502D01*
X130665757Y-83168550D02*
X130570519Y-83216169D01*
X130570519Y-83216169D02*
X130380043Y-83216169D01*
X130380043Y-83216169D02*
X130284805Y-83168550D01*
X130284805Y-83168550D02*
X130237186Y-83073311D01*
X130237186Y-83073311D02*
X130237186Y-83025692D01*
X130237186Y-83025692D02*
X130284805Y-82930454D01*
X130284805Y-82930454D02*
X130380043Y-82882835D01*
X130380043Y-82882835D02*
X130522900Y-82882835D01*
X130522900Y-82882835D02*
X130618138Y-82835216D01*
X130618138Y-82835216D02*
X130665757Y-82739978D01*
X130665757Y-82739978D02*
X130665757Y-82692359D01*
X130665757Y-82692359D02*
X130618138Y-82597121D01*
X130618138Y-82597121D02*
X130522900Y-82549502D01*
X130522900Y-82549502D02*
X130380043Y-82549502D01*
X130380043Y-82549502D02*
X130284805Y-82597121D01*
X129427662Y-83168550D02*
X129522900Y-83216169D01*
X129522900Y-83216169D02*
X129713376Y-83216169D01*
X129713376Y-83216169D02*
X129808614Y-83168550D01*
X129808614Y-83168550D02*
X129856233Y-83073311D01*
X129856233Y-83073311D02*
X129856233Y-82692359D01*
X129856233Y-82692359D02*
X129808614Y-82597121D01*
X129808614Y-82597121D02*
X129713376Y-82549502D01*
X129713376Y-82549502D02*
X129522900Y-82549502D01*
X129522900Y-82549502D02*
X129427662Y-82597121D01*
X129427662Y-82597121D02*
X129380043Y-82692359D01*
X129380043Y-82692359D02*
X129380043Y-82787597D01*
X129380043Y-82787597D02*
X129856233Y-82882835D01*
X128808614Y-83216169D02*
X128903852Y-83168550D01*
X128903852Y-83168550D02*
X128951471Y-83073311D01*
X128951471Y-83073311D02*
X128951471Y-82216169D01*
X128046709Y-83168550D02*
X128141947Y-83216169D01*
X128141947Y-83216169D02*
X128332423Y-83216169D01*
X128332423Y-83216169D02*
X128427661Y-83168550D01*
X128427661Y-83168550D02*
X128475280Y-83073311D01*
X128475280Y-83073311D02*
X128475280Y-82692359D01*
X128475280Y-82692359D02*
X128427661Y-82597121D01*
X128427661Y-82597121D02*
X128332423Y-82549502D01*
X128332423Y-82549502D02*
X128141947Y-82549502D01*
X128141947Y-82549502D02*
X128046709Y-82597121D01*
X128046709Y-82597121D02*
X127999090Y-82692359D01*
X127999090Y-82692359D02*
X127999090Y-82787597D01*
X127999090Y-82787597D02*
X128475280Y-82882835D01*
X127570518Y-82549502D02*
X127570518Y-83216169D01*
X127570518Y-82644740D02*
X127522899Y-82597121D01*
X127522899Y-82597121D02*
X127427661Y-82549502D01*
X127427661Y-82549502D02*
X127284804Y-82549502D01*
X127284804Y-82549502D02*
X127189566Y-82597121D01*
X127189566Y-82597121D02*
X127141947Y-82692359D01*
X127141947Y-82692359D02*
X127141947Y-83216169D01*
X126237185Y-83216169D02*
X126237185Y-82692359D01*
X126237185Y-82692359D02*
X126284804Y-82597121D01*
X126284804Y-82597121D02*
X126380042Y-82549502D01*
X126380042Y-82549502D02*
X126570518Y-82549502D01*
X126570518Y-82549502D02*
X126665756Y-82597121D01*
X126237185Y-83168550D02*
X126332423Y-83216169D01*
X126332423Y-83216169D02*
X126570518Y-83216169D01*
X126570518Y-83216169D02*
X126665756Y-83168550D01*
X126665756Y-83168550D02*
X126713375Y-83073311D01*
X126713375Y-83073311D02*
X126713375Y-82978073D01*
X126713375Y-82978073D02*
X126665756Y-82882835D01*
X126665756Y-82882835D02*
X126570518Y-82835216D01*
X126570518Y-82835216D02*
X126332423Y-82835216D01*
X126332423Y-82835216D02*
X126237185Y-82787597D01*
D11*
X124610714Y-57487259D02*
X124467857Y-57534878D01*
X124467857Y-57534878D02*
X124420238Y-57582497D01*
X124420238Y-57582497D02*
X124372619Y-57677735D01*
X124372619Y-57677735D02*
X124372619Y-57820592D01*
X124372619Y-57820592D02*
X124420238Y-57915830D01*
X124420238Y-57915830D02*
X124467857Y-57963450D01*
X124467857Y-57963450D02*
X124563095Y-58011069D01*
X124563095Y-58011069D02*
X124944047Y-58011069D01*
X124944047Y-58011069D02*
X124944047Y-57011069D01*
X124944047Y-57011069D02*
X124610714Y-57011069D01*
X124610714Y-57011069D02*
X124515476Y-57058688D01*
X124515476Y-57058688D02*
X124467857Y-57106307D01*
X124467857Y-57106307D02*
X124420238Y-57201545D01*
X124420238Y-57201545D02*
X124420238Y-57296783D01*
X124420238Y-57296783D02*
X124467857Y-57392021D01*
X124467857Y-57392021D02*
X124515476Y-57439640D01*
X124515476Y-57439640D02*
X124610714Y-57487259D01*
X124610714Y-57487259D02*
X124944047Y-57487259D01*
X124086904Y-57011069D02*
X123515476Y-57011069D01*
X123801190Y-58011069D02*
X123801190Y-57011069D01*
X122658333Y-58011069D02*
X123229761Y-58011069D01*
X122944047Y-58011069D02*
X122944047Y-57011069D01*
X122944047Y-57011069D02*
X123039285Y-57153926D01*
X123039285Y-57153926D02*
X123134523Y-57249164D01*
X123134523Y-57249164D02*
X123229761Y-57296783D01*
X147557200Y-64472917D02*
X147604819Y-64615774D01*
X147604819Y-64615774D02*
X147604819Y-64853869D01*
X147604819Y-64853869D02*
X147557200Y-64949107D01*
X147557200Y-64949107D02*
X147509580Y-64996726D01*
X147509580Y-64996726D02*
X147414342Y-65044345D01*
X147414342Y-65044345D02*
X147319104Y-65044345D01*
X147319104Y-65044345D02*
X147223866Y-64996726D01*
X147223866Y-64996726D02*
X147176247Y-64949107D01*
X147176247Y-64949107D02*
X147128628Y-64853869D01*
X147128628Y-64853869D02*
X147081009Y-64663393D01*
X147081009Y-64663393D02*
X147033390Y-64568155D01*
X147033390Y-64568155D02*
X146985771Y-64520536D01*
X146985771Y-64520536D02*
X146890533Y-64472917D01*
X146890533Y-64472917D02*
X146795295Y-64472917D01*
X146795295Y-64472917D02*
X146700057Y-64520536D01*
X146700057Y-64520536D02*
X146652438Y-64568155D01*
X146652438Y-64568155D02*
X146604819Y-64663393D01*
X146604819Y-64663393D02*
X146604819Y-64901488D01*
X146604819Y-64901488D02*
X146652438Y-65044345D01*
X146604819Y-65377679D02*
X147604819Y-65615774D01*
X147604819Y-65615774D02*
X146890533Y-65806250D01*
X146890533Y-65806250D02*
X147604819Y-65996726D01*
X147604819Y-65996726D02*
X146604819Y-66234822D01*
X147604819Y-67139583D02*
X147604819Y-66568155D01*
X147604819Y-66853869D02*
X146604819Y-66853869D01*
X146604819Y-66853869D02*
X146747676Y-66758631D01*
X146747676Y-66758631D02*
X146842914Y-66663393D01*
X146842914Y-66663393D02*
X146890533Y-66568155D01*
X145422916Y-93312319D02*
X145756249Y-92836128D01*
X145994344Y-93312319D02*
X145994344Y-92312319D01*
X145994344Y-92312319D02*
X145613392Y-92312319D01*
X145613392Y-92312319D02*
X145518154Y-92359938D01*
X145518154Y-92359938D02*
X145470535Y-92407557D01*
X145470535Y-92407557D02*
X145422916Y-92502795D01*
X145422916Y-92502795D02*
X145422916Y-92645652D01*
X145422916Y-92645652D02*
X145470535Y-92740890D01*
X145470535Y-92740890D02*
X145518154Y-92788509D01*
X145518154Y-92788509D02*
X145613392Y-92836128D01*
X145613392Y-92836128D02*
X145994344Y-92836128D01*
X145089582Y-92312319D02*
X144470535Y-92312319D01*
X144470535Y-92312319D02*
X144803868Y-92693271D01*
X144803868Y-92693271D02*
X144661011Y-92693271D01*
X144661011Y-92693271D02*
X144565773Y-92740890D01*
X144565773Y-92740890D02*
X144518154Y-92788509D01*
X144518154Y-92788509D02*
X144470535Y-92883747D01*
X144470535Y-92883747D02*
X144470535Y-93121842D01*
X144470535Y-93121842D02*
X144518154Y-93217080D01*
X144518154Y-93217080D02*
X144565773Y-93264700D01*
X144565773Y-93264700D02*
X144661011Y-93312319D01*
X144661011Y-93312319D02*
X144946725Y-93312319D01*
X144946725Y-93312319D02*
X145041963Y-93264700D01*
X145041963Y-93264700D02*
X145089582Y-93217080D01*
X145422916Y-83787319D02*
X145756249Y-83311128D01*
X145994344Y-83787319D02*
X145994344Y-82787319D01*
X145994344Y-82787319D02*
X145613392Y-82787319D01*
X145613392Y-82787319D02*
X145518154Y-82834938D01*
X145518154Y-82834938D02*
X145470535Y-82882557D01*
X145470535Y-82882557D02*
X145422916Y-82977795D01*
X145422916Y-82977795D02*
X145422916Y-83120652D01*
X145422916Y-83120652D02*
X145470535Y-83215890D01*
X145470535Y-83215890D02*
X145518154Y-83263509D01*
X145518154Y-83263509D02*
X145613392Y-83311128D01*
X145613392Y-83311128D02*
X145994344Y-83311128D01*
X145041963Y-82882557D02*
X144994344Y-82834938D01*
X144994344Y-82834938D02*
X144899106Y-82787319D01*
X144899106Y-82787319D02*
X144661011Y-82787319D01*
X144661011Y-82787319D02*
X144565773Y-82834938D01*
X144565773Y-82834938D02*
X144518154Y-82882557D01*
X144518154Y-82882557D02*
X144470535Y-82977795D01*
X144470535Y-82977795D02*
X144470535Y-83073033D01*
X144470535Y-83073033D02*
X144518154Y-83215890D01*
X144518154Y-83215890D02*
X145089582Y-83787319D01*
X145089582Y-83787319D02*
X144470535Y-83787319D01*
X145422916Y-88549819D02*
X145756249Y-88073628D01*
X145994344Y-88549819D02*
X145994344Y-87549819D01*
X145994344Y-87549819D02*
X145613392Y-87549819D01*
X145613392Y-87549819D02*
X145518154Y-87597438D01*
X145518154Y-87597438D02*
X145470535Y-87645057D01*
X145470535Y-87645057D02*
X145422916Y-87740295D01*
X145422916Y-87740295D02*
X145422916Y-87883152D01*
X145422916Y-87883152D02*
X145470535Y-87978390D01*
X145470535Y-87978390D02*
X145518154Y-88026009D01*
X145518154Y-88026009D02*
X145613392Y-88073628D01*
X145613392Y-88073628D02*
X145994344Y-88073628D01*
X144470535Y-88549819D02*
X145041963Y-88549819D01*
X144756249Y-88549819D02*
X144756249Y-87549819D01*
X144756249Y-87549819D02*
X144851487Y-87692676D01*
X144851487Y-87692676D02*
X144946725Y-87787914D01*
X144946725Y-87787914D02*
X145041963Y-87835533D01*
X99639344Y-46501069D02*
X99639344Y-45501069D01*
X99639344Y-45501069D02*
X99401249Y-45501069D01*
X99401249Y-45501069D02*
X99258392Y-45548688D01*
X99258392Y-45548688D02*
X99163154Y-45643926D01*
X99163154Y-45643926D02*
X99115535Y-45739164D01*
X99115535Y-45739164D02*
X99067916Y-45929640D01*
X99067916Y-45929640D02*
X99067916Y-46072497D01*
X99067916Y-46072497D02*
X99115535Y-46262973D01*
X99115535Y-46262973D02*
X99163154Y-46358211D01*
X99163154Y-46358211D02*
X99258392Y-46453450D01*
X99258392Y-46453450D02*
X99401249Y-46501069D01*
X99401249Y-46501069D02*
X99639344Y-46501069D01*
X98734582Y-45501069D02*
X98115535Y-45501069D01*
X98115535Y-45501069D02*
X98448868Y-45882021D01*
X98448868Y-45882021D02*
X98306011Y-45882021D01*
X98306011Y-45882021D02*
X98210773Y-45929640D01*
X98210773Y-45929640D02*
X98163154Y-45977259D01*
X98163154Y-45977259D02*
X98115535Y-46072497D01*
X98115535Y-46072497D02*
X98115535Y-46310592D01*
X98115535Y-46310592D02*
X98163154Y-46405830D01*
X98163154Y-46405830D02*
X98210773Y-46453450D01*
X98210773Y-46453450D02*
X98306011Y-46501069D01*
X98306011Y-46501069D02*
X98591725Y-46501069D01*
X98591725Y-46501069D02*
X98686963Y-46453450D01*
X98686963Y-46453450D02*
X98734582Y-46405830D01*
X142501844Y-41738569D02*
X142501844Y-40738569D01*
X142501844Y-40738569D02*
X142263749Y-40738569D01*
X142263749Y-40738569D02*
X142120892Y-40786188D01*
X142120892Y-40786188D02*
X142025654Y-40881426D01*
X142025654Y-40881426D02*
X141978035Y-40976664D01*
X141978035Y-40976664D02*
X141930416Y-41167140D01*
X141930416Y-41167140D02*
X141930416Y-41309997D01*
X141930416Y-41309997D02*
X141978035Y-41500473D01*
X141978035Y-41500473D02*
X142025654Y-41595711D01*
X142025654Y-41595711D02*
X142120892Y-41690950D01*
X142120892Y-41690950D02*
X142263749Y-41738569D01*
X142263749Y-41738569D02*
X142501844Y-41738569D01*
X141549463Y-40833807D02*
X141501844Y-40786188D01*
X141501844Y-40786188D02*
X141406606Y-40738569D01*
X141406606Y-40738569D02*
X141168511Y-40738569D01*
X141168511Y-40738569D02*
X141073273Y-40786188D01*
X141073273Y-40786188D02*
X141025654Y-40833807D01*
X141025654Y-40833807D02*
X140978035Y-40929045D01*
X140978035Y-40929045D02*
X140978035Y-41024283D01*
X140978035Y-41024283D02*
X141025654Y-41167140D01*
X141025654Y-41167140D02*
X141597082Y-41738569D01*
X141597082Y-41738569D02*
X140978035Y-41738569D01*
X128055594Y-91744819D02*
X128055594Y-90744819D01*
X128055594Y-90744819D02*
X127817499Y-90744819D01*
X127817499Y-90744819D02*
X127674642Y-90792438D01*
X127674642Y-90792438D02*
X127579404Y-90887676D01*
X127579404Y-90887676D02*
X127531785Y-90982914D01*
X127531785Y-90982914D02*
X127484166Y-91173390D01*
X127484166Y-91173390D02*
X127484166Y-91316247D01*
X127484166Y-91316247D02*
X127531785Y-91506723D01*
X127531785Y-91506723D02*
X127579404Y-91601961D01*
X127579404Y-91601961D02*
X127674642Y-91697200D01*
X127674642Y-91697200D02*
X127817499Y-91744819D01*
X127817499Y-91744819D02*
X128055594Y-91744819D01*
X126531785Y-91744819D02*
X127103213Y-91744819D01*
X126817499Y-91744819D02*
X126817499Y-90744819D01*
X126817499Y-90744819D02*
X126912737Y-90887676D01*
X126912737Y-90887676D02*
X127007975Y-90982914D01*
X127007975Y-90982914D02*
X127103213Y-91030533D01*
D12*
%TO.C,BT1*%
X134605000Y-66056250D02*
X134605000Y-63596250D01*
X134605000Y-72686250D02*
X134605000Y-72056250D01*
X133165000Y-76636250D02*
X134605000Y-72686250D01*
X134605000Y-63596250D02*
X132525000Y-61516250D01*
X132525000Y-61516250D02*
X129025000Y-61516250D01*
X118625000Y-61516250D02*
X115125000Y-61516250D01*
X113045000Y-63596250D02*
X115125000Y-61516250D01*
X113045000Y-66056250D02*
X113045000Y-63596250D01*
X113045000Y-72686250D02*
X113045000Y-72056250D01*
X114485000Y-76636250D02*
X113045000Y-72686250D01*
X133165000Y-76636250D02*
G75*
G02*
X129828354Y-77622780I-2030000J730001D01*
G01*
X117825000Y-77606250D02*
G75*
G02*
X114499757Y-76644419I-1310000J1700000D01*
G01*
%TO.C,R3*%
X148526250Y-89447500D02*
X148526250Y-89117500D01*
X148526250Y-91527500D02*
X148526250Y-91857500D01*
X148526250Y-89117500D02*
X141986250Y-89117500D01*
X141986250Y-89117500D02*
X141986250Y-89447500D01*
X141986250Y-91857500D02*
X141986250Y-91527500D01*
X148526250Y-91857500D02*
X141986250Y-91857500D01*
%TO.C,R2*%
X148526250Y-79922500D02*
X148526250Y-79592500D01*
X148526250Y-82002500D02*
X148526250Y-82332500D01*
X148526250Y-79592500D02*
X141986250Y-79592500D01*
X141986250Y-79592500D02*
X141986250Y-79922500D01*
X141986250Y-82332500D02*
X141986250Y-82002500D01*
X148526250Y-82332500D02*
X141986250Y-82332500D01*
%TO.C,R1*%
X148526250Y-84685000D02*
X148526250Y-84355000D01*
X148526250Y-86765000D02*
X148526250Y-87095000D01*
X148526250Y-84355000D02*
X141986250Y-84355000D01*
X141986250Y-84355000D02*
X141986250Y-84685000D01*
X141986250Y-87095000D02*
X141986250Y-86765000D01*
X148526250Y-87095000D02*
X141986250Y-87095000D01*
%TD*%
M02*
