M48
; DRILL file {KiCad 8.0.7} date 2025-05-11T16:10:17-0400
; FORMAT={-:-/ absolute / inch / decimal}
; #@! TF.CreationDate,2025-05-11T16:10:17-04:00
; #@! TF.GenerationSoftware,Kicad,Pcbnew,8.0.7
; #@! TF.FileFunction,Plated,1,2,PTH
FMAT,2
INCH
; #@! TA.AperFunction,Plated,PTH,ViaDrill
T1C0.0118
; #@! TA.AperFunction,Plated,PTH,ComponentDrill
T2C0.0295
; #@! TA.AperFunction,Plated,PTH,ComponentDrill
T3C0.0315
; #@! TA.AperFunction,Plated,PTH,ComponentDrill
T4C0.0354
; #@! TA.AperFunction,Plated,PTH,ComponentDrill
T5C0.0433
; #@! TA.AperFunction,Plated,PTH,ViaDrill
T6C0.1969
%
G90
G05
T1
X5.7188Y-3.375
T2
X5.2938Y-3.2375
X5.3438Y-3.1875
X5.3438Y-3.2875
X5.525Y-3.2812
X5.575Y-3.2312
X5.625Y-3.2812
X5.8Y-3.2812
X5.85Y-3.2312
X5.9Y-3.2812
T3
X3.5437Y-2.4375
X3.5437Y-2.625
X3.5437Y-2.8125
X3.8438Y-2.4375
X3.8438Y-2.625
X3.8438Y-2.8125
X5.8062Y-2.15
X5.9062Y-2.05
X5.9062Y-2.25
T4
X3.8375Y-1.9688
X3.9375Y-1.9688
X4.9625Y-3.75
X5.0625Y-3.75
X5.525Y-1.7812
X5.625Y-1.7812
T5
X5.872Y-2.4628
X5.872Y-2.7188
X6.0492Y-2.4628
X6.0492Y-2.7188
T6
X4.875Y-1.5
M30
